<?xml version="1.0" encoding="UTF-8"?>
<!DOCTYPE svg PUBLIC "-//W3C//DTD SVG 1.1//EN" "http://www.w3.org/Graphics/SVG/1.1/DTD/svg11.dtd">
<!-- Creator: CorelDRAW -->
<svg xmlns="http://www.w3.org/2000/svg" xml:space="preserve" width="138.33mm" height="138.42mm" version="1.1" style="shape-rendering:geometricPrecision; text-rendering:geometricPrecision; image-rendering:optimizeQuality; fill-rule:evenodd; clip-rule:evenodd"
viewBox="0 0 1794.53 1795.7"
 xmlns:xlink="http://www.w3.org/1999/xlink"
 xmlns:xodm="http://www.corel.com/coreldraw/odm/2003">
 <defs>
  <style type="text/css">
   <![CDATA[
    .fil0 {fill:#F7FAF9}
   ]]>
  </style>
 </defs>
 <g id="Camada_x0020_1">
  <metadata id="CorelCorpID_0Corel-Layer"/>
  <g>
   <path class="fil0" d="M1794.52 897.85l-0.01 1.01 0 0.19c0.04,0.98 0.01,1.98 -0.08,2.96 -1,23.88 -10.54,47.44 -28.67,65.57l-798.79 798.79c-17.22,17.22 -39.35,26.68 -61.98,28.45 -4.1,1.12 -8.44,1.19 -12.57,0.2 -23.63,-1.16 -46.93,-10.7 -64.87,-28.65l-798.79 -798.79c-17.64,-17.64 -27.14,-40.4 -28.58,-63.58l0 -0.01 -0.01 -0.21c-0.14,-1.19 -0.18,-2.37 -0.15,-3.55l0 -0.44 -0.02 -1.93c0,-25.27 9.58,-50.54 28.76,-69.72l798.79 -798.79c18.31,-18.31 42.19,-27.86 66.31,-28.68 4.15,-0.97 8.55,-0.89 12.81,0.37 22.04,2.09 43.51,11.51 60.31,28.31l798.79 798.79c19.18,19.18 28.76,44.45 28.76,69.72zm-112.75 13.18c-2.79,-3.39 -6.62,-5.95 -11.18,-7.17 -11.62,-3.09 -23.54,3.83 -26.63,15.44 -1.16,4.35 -0.9,8.74 0.46,12.69l37.35 -20.97zm-1114.57 -335.42c-0.57,-0.47 -1.16,-0.94 -1.78,-1.36 -9.88,-6.84 -23.44,-4.37 -30.29,5.51 -3.23,4.68 -4.38,10.17 -3.65,15.4l0 0.01 -12.95 7.09 0 -0.01c-1.29,-1.63 -2.86,-3.11 -4.67,-4.36 -9.88,-6.83 -23.44,-4.36 -30.27,5.53 -4.09,5.91 -4.84,13.13 -2.69,19.44l-8.87 4.85c-1.55,-2.6 -3.66,-4.92 -6.32,-6.76 -9.88,-6.84 -23.44,-4.37 -30.27,5.53 -4.68,6.76 -5,15.25 -1.56,22.13l-11.66 6.38c-1.49,-4.07 -4.21,-7.73 -8.05,-10.39 -9.89,-6.83 -23.45,-4.36 -30.29,5.54 -5.49,7.93 -4.97,18.24 0.56,25.54l-9.56 5.23c-1.13,-5.19 -4.16,-9.98 -8.87,-13.24 -9.9,-6.83 -23.45,-4.36 -30.29,5.53 -6.08,8.8 -4.8,20.48 2.51,27.78l-14.39 7.87c-0.13,-6.77 -3.4,-13.37 -9.39,-17.52 -4.88,-3.36 -10.64,-4.47 -16.04,-3.55l12.12 -12.12c6,-0.69 11.69,-3.87 15.4,-9.24 2.1,-3.04 3.32,-6.44 3.71,-9.87l10.67 -10.67c1.03,1.1 2.2,2.12 3.49,3.01 9.88,6.83 23.44,4.36 30.27,-5.53 6.22,-8.98 4.73,-20.99 -3.01,-28.24l16.89 -16.89c-4.36,9.42 -1.43,20.9 7.4,27.01 9.88,6.83 23.44,4.36 30.27,-5.54 6.84,-9.88 4.37,-23.44 -5.51,-30.27 -6.55,-4.53 -14.74,-4.98 -21.49,-1.87l13.11 -13.11c6.38,-0.44 12.52,-3.66 16.45,-9.34 2.31,-3.35 3.56,-7.13 3.82,-10.92l12.25 -12.25c1.4,1.92 3.13,3.64 5.19,5.06 9.89,6.83 23.45,4.36 30.29,-5.54 6.74,-9.72 4.45,-23.03 -5.05,-29.95l16.56 -16.56c-5.77,9.76 -3.1,22.45 6.37,28.99 9.88,6.83 23.43,4.36 30.27,-5.53 6.84,-9.88 4.36,-23.44 -5.53,-30.29 -7.21,-4.98 -16.38,-5.02 -23.47,-0.83l14.8 -14.8c7.64,0.79 15.47,-2.51 20.14,-9.27 3.07,-4.45 4.27,-9.63 3.75,-14.61l8.54 -8.54c1.47,2.15 3.33,4.06 5.58,5.62 9.9,6.84 23.45,4.37 30.29,-5.53 6.83,-9.88 4.36,-23.44 -5.53,-30.27l-0.09 -0.07 38.73 -38.73c7.91,1.13 16.14,-2.15 20.99,-9.17 3.25,-4.69 4.39,-10.22 3.64,-15.47l10.64 -10.64c1.58,3.1 3.93,5.86 6.99,7.98 9.9,6.83 23.44,4.36 30.29,-5.53 6.83,-9.9 4.36,-23.44 -5.53,-30.29 -0.8,-0.54 -1.61,-1.04 -2.45,-1.47l38 -38c8.76,2.6 18.59,-0.57 24.08,-8.5 3.9,-5.63 4.75,-12.45 2.96,-18.54l7.61 -7.61c0.76,1.62 1.72,3.17 2.89,4.58l8.87 -16.33 0.04 -0.04 -34.04 62.7c-9.87,-6.65 -23.27,-4.15 -30.07,5.68 -6.83,9.88 -4.37,23.44 5.53,30.27 1.24,0.85 2.53,1.57 3.87,2.14l-12.45 22.93c-0.53,0.83 -0.98,1.69 -1.38,2.56l-0.01 0.02 -12.37 22.79c-1.58,-3.11 -3.94,-5.87 -7.01,-8 -9.88,-6.83 -23.44,-4.36 -30.29,5.53 -6.83,9.89 -4.37,23.45 5.53,30.29 4.45,3.07 9.64,4.27 14.63,3.75l-6.08 11.21c-6.45,0.38 -12.67,3.62 -16.62,9.35 -4.91,7.11 -5.02,16.1 -1.02,23.14l-25.93 47.78c-9.44,-4.45 -21,-1.55 -27.15,7.32 -6.84,9.9 -4.36,23.45 5.53,30.29 0.3,0.21 0.6,0.4 0.9,0.59l-21.35 39.33 -7.11 3.9zm-24 -20.16c9.89,6.84 23.45,4.37 30.29,-5.53 6.83,-9.88 4.36,-23.44 -5.53,-30.28 -9.88,-6.84 -23.44,-4.37 -30.29,5.53 -6.83,9.88 -4.36,23.44 5.53,30.27zm54.1 -78.25c9.9,6.84 23.44,4.37 30.29,-5.53 6.83,-9.88 4.36,-23.44 -5.53,-30.28 -9.9,-6.83 -23.45,-4.37 -30.29,5.53 -6.83,9.88 -4.36,23.44 5.53,30.27zm-102.26 101.31c9.89,6.83 23.45,4.36 30.29,-5.53 6.83,-9.9 4.36,-23.44 -5.53,-30.29 -9.88,-6.84 -23.44,-4.36 -30.27,5.53 -6.84,9.89 -4.37,23.44 5.51,30.29zm54.1 -78.25c9.89,6.84 23.44,4.37 30.29,-5.51 6.84,-9.89 4.36,-23.45 -5.53,-30.3 -9.88,-6.83 -23.44,-4.36 -30.29,5.53 -6.83,9.89 -4.36,23.45 5.53,30.29zm54.1 -78.25c9.88,6.84 23.44,4.37 30.29,-5.51 6.83,-9.9 4.36,-23.45 -5.53,-30.29 -9.88,-6.84 -23.44,-4.37 -30.29,5.51 -6.83,9.89 -4.36,23.45 5.53,30.29zm-159.74 180.15c9.88,6.83 23.44,4.36 30.29,-5.53 6.83,-9.88 4.36,-23.45 -5.54,-30.29 -9.88,-6.84 -23.44,-4.36 -30.28,5.53 -6.83,9.9 -4.37,23.45 5.53,30.29zm-153.81 124.95l0.34 0.22 -14.55 7.97c0.94,-6.66 -1.27,-13.54 -6.18,-18.44l11.32 -11.31c-1.36,8.07 1.91,16.59 9.08,21.56zm-48.16 23.06c1.08,0.73 2.18,1.36 3.33,1.88l-22.43 12.28 0.39 -1.01 15.68 -15.68c0.91,0.91 1.93,1.76 3.03,2.52zm1386.63 190.96c-8.06,-0.27 -15.65,4.01 -19.62,11l14.29 -8.01 -31.69 17.79c1.71,-2.22 3.02,-4.81 3.78,-7.69 3.09,-11.62 -3.83,-23.54 -15.44,-26.63 -11.62,-3.09 -23.54,3.83 -26.62,15.44 -3.1,11.62 3.82,23.55 15.43,26.63 2.67,0.71 5.35,0.89 7.94,0.61l-80.43 45.15 12.47 -7.01c-2.01,-1.41 -4.31,-2.49 -6.82,-3.16 -11.62,-3.09 -23.55,3.83 -26.63,15.43 -0.61,2.31 -0.83,4.64 -0.69,6.9l-51.09 28.68c2.42,-11.27 -4.43,-22.58 -15.7,-25.57 -11.61,-3.09 -23.54,3.83 -26.62,15.44 -2.95,11.06 3.19,22.4 13.81,26.12l15.27 -8.57 -79.9 44.85 -0.59 -0.17c-11.62,-3.1 -23.54,3.83 -26.63,15.43l0 0.02 -48.41 27.18c-0.87,-8.77 -7.05,-16.49 -16.07,-18.9 -11.63,-3.09 -23.55,3.83 -26.63,15.44 -2.34,8.81 1.07,17.8 7.93,22.98l-12.13 6.81c-2.61,-2.58 -5.89,-4.53 -9.7,-5.54 -6.31,-1.69 -12.73,-0.4 -17.76,2.98l-21.81 -5.67c-2.67,-5.51 -7.63,-9.87 -14.01,-11.57 -6.47,-1.72 -13.03,-0.34 -18.11,3.24l-0.01 0 -21.28 -5.53 0 -0.01c-2.61,-5.69 -7.66,-10.22 -14.18,-11.95 -6.62,-1.76 -13.33,-0.27 -18.46,3.48l-0.01 0.01 -20.76 -5.4c-2.57,-5.87 -7.69,-10.57 -14.37,-12.35 -6.76,-1.79 -13.63,-0.2 -18.8,3.75l-20.26 -5.26 0 -0.01c-2.5,-6.05 -7.7,-10.91 -14.52,-12.73 -6.91,-1.84 -13.94,-0.13 -19.14,4l-19.78 -5.13c-2.44,-6.23 -7.71,-11.26 -14.68,-13.11 -7.05,-1.88 -14.21,-0.07 -19.44,4.24l-19.32 -5c-2.38,-6.4 -7.72,-11.61 -14.83,-13.49 -7.19,-1.92 -14.5,0.01 -19.76,4.51l-18.87 -4.9c-2.31,-6.58 -7.72,-11.93 -14.97,-13.86 -7.33,-1.95 -14.79,0.08 -20.06,4.77l-18.45 -4.79c-2.22,-6.75 -7.7,-12.28 -15.08,-14.24 -7.47,-1.99 -15.06,0.16 -20.36,5.04l-8.02 -2.08 -5.16 -19.98c2.53,2.38 5.68,4.19 9.27,5.15 11.63,3.09 23.55,-3.83 26.63,-15.44 3.09,-11.62 -3.83,-23.54 -15.44,-26.62 -11.25,-2.99 -22.78,3.4 -26.31,14.36l-7.03 -27.19c1.84,1.17 3.87,2.07 6.08,2.66 11.62,3.1 23.55,-3.83 26.63,-15.44 3.09,-11.62 -3.83,-23.54 -15.44,-26.62 -9.91,-2.64 -20.03,2 -24.71,10.62l-6.69 -25.88c2.09,1.52 4.5,2.68 7.14,3.39 11.62,3.09 23.55,-3.83 26.63,-15.44 3.09,-11.62 -3.83,-23.54 -15.44,-26.63 -10.34,-2.75 -20.91,2.42 -25.29,11.78l-6.08 -23.49c1.29,0.64 2.67,1.17 4.11,1.55 11.62,3.09 23.54,-3.83 26.63,-15.44 3.09,-11.62 -3.83,-23.54 -15.44,-26.63 -9.14,-2.43 -18.47,1.34 -23.54,8.7l-5.86 -22.66c1.57,0.89 3.29,1.6 5.13,2.08 11.62,3.1 23.55,-3.83 26.63,-15.44 3.09,-11.62 -3.83,-23.54 -15.44,-26.62 -9.54,-2.54 -19.27,1.66 -24.16,9.66l-5.32 -20.55c0.72,0.28 1.46,0.52 2.22,0.73 11.61,3.09 23.54,-3.83 26.62,-15.44 3.09,-11.62 -3.82,-23.55 -15.43,-26.63 -8.44,-2.24 -17.03,0.79 -22.29,7.05l-5.19 -20.04c1.03,0.45 2.09,0.82 3.2,1.12 11.63,3.09 23.55,-3.83 26.63,-15.44 3.1,-11.62 -3.83,-23.55 -15.43,-26.63 -8.8,-2.34 -17.77,1.06 -22.95,7.9l-4.71 -18.17 0.38 0.12c11.62,3.09 23.55,-3.83 26.63,-15.44 3.09,-11.62 -3.82,-23.54 -15.44,-26.62 -7.76,-2.07 -15.66,0.33 -20.97,5.62l-3.5 -13.54 1064.07 280.14 -63.8 35.81zm-22.35 -9.44c11.62,3.09 23.55,-3.83 26.63,-15.44 3.09,-11.62 -3.83,-23.55 -15.44,-26.63 -11.62,-3.09 -23.54,3.83 -26.63,15.44 -3.09,11.62 3.83,23.54 15.44,26.63zm-51.45 50.87c-1.99,-7.21 -7.64,-13.21 -15.4,-15.27 -11.62,-3.09 -23.54,3.83 -26.63,15.44 -2,7.54 0.21,15.21 5.19,20.51l36.84 -20.68zm-2.14 -65.13c11.62,3.09 23.54,-3.83 26.63,-15.44 3.09,-11.62 -3.83,-23.54 -15.44,-26.63 -11.62,-3.09 -23.54,3.83 -26.63,15.44 -3.09,11.62 3.83,23.55 15.44,26.63zm-37.52 37.98c11.62,3.09 23.55,-3.83 26.63,-15.44 3.09,-11.62 -3.83,-23.54 -15.44,-26.62 -11.62,-3.1 -23.54,3.82 -26.62,15.43 -3.1,11.62 3.81,23.55 15.43,26.63zm-40.52 39.7c11.62,3.09 23.55,-3.83 26.63,-15.44 3.09,-11.62 -3.83,-23.55 -15.44,-26.63 -11.62,-3.09 -23.54,3.83 -26.63,15.44 -3.09,11.62 3.83,23.54 15.44,26.63zm24.45 -91.92c11.62,3.09 23.54,-3.84 26.63,-15.46 3.09,-11.61 -3.83,-23.54 -15.44,-26.63 -11.62,-3.09 -23.55,3.83 -26.63,15.44 -3.09,11.62 3.83,23.55 15.44,26.65zm-61.96 129.91c11.62,3.09 23.54,-3.83 26.62,-15.44 3.09,-11.62 -3.83,-23.54 -15.44,-26.63 -11.62,-3.09 -23.54,3.83 -26.62,15.44 -3.09,11.62 3.81,23.54 15.44,26.63zm24.44 -91.92c11.62,3.08 23.55,-3.84 26.63,-15.44 3.09,-11.63 -3.83,-23.55 -15.44,-26.63 -11.62,-3.09 -23.54,3.82 -26.63,15.44 -3.09,11.61 3.83,23.54 15.44,26.63zm-40.52 39.69c11.62,3.09 23.55,-3.83 26.63,-15.44 3.09,-11.62 -3.83,-23.54 -15.44,-26.63 -11.62,-3.09 -23.54,3.83 -26.62,15.44 -3.1,11.62 3.83,23.55 15.43,26.63zm24.45 -91.93c11.62,3.1 23.54,-3.83 26.63,-15.43 3.09,-11.63 -3.83,-23.55 -15.44,-26.63 -11.62,-3.1 -23.55,3.83 -26.63,15.44 -3.09,11.62 3.83,23.54 15.44,26.62zm-62.03 189.82c-2.8,-4.79 -7.41,-8.51 -13.19,-10.04 -11.62,-3.09 -23.55,3.83 -26.63,15.44 -1.48,5.57 -0.66,11.21 1.87,15.91l37.95 -21.31zm0.06 -59.9c11.62,3.09 23.55,-3.83 26.63,-15.44 3.09,-11.61 -3.83,-23.54 -15.43,-26.63 -11.63,-3.09 -23.55,3.83 -26.63,15.44 -3.1,11.62 3.83,23.55 15.43,26.63zm24.45 -91.94c11.62,3.1 23.55,-3.83 26.63,-15.44 3.09,-11.61 -3.83,-23.54 -15.44,-26.62 -11.62,-3.09 -23.54,3.83 -26.63,15.44 -3.09,11.62 3.83,23.54 15.44,26.62zm-64.95 131.62c11.61,3.1 23.54,-3.81 26.62,-15.43 3.09,-11.62 -3.81,-23.55 -15.44,-26.63 -11.61,-3.09 -23.54,3.83 -26.62,15.44 -3.1,11.62 3.83,23.54 15.44,26.62zm24.44 -91.92c11.62,3.1 23.55,-3.83 26.63,-15.44 3.09,-11.62 -3.83,-23.54 -15.44,-26.63 -11.62,-3.09 -23.54,3.83 -26.63,15.44 -3.09,11.62 3.83,23.55 15.44,26.63zm24.45 -91.93c11.62,3.1 23.54,-3.82 26.62,-15.43 3.1,-11.62 -3.82,-23.55 -15.43,-26.63 -11.62,-3.09 -23.55,3.83 -26.63,15.44 -3.09,11.62 3.83,23.54 15.44,26.62zm-86.41 221.85c11.62,3.09 23.54,-3.83 26.62,-15.46 3.09,-11.61 -3.83,-23.54 -15.43,-26.62 -11.63,-3.09 -23.55,3.83 -26.63,15.44 -3.09,11.62 3.83,23.54 15.44,26.63zm24.44 -91.93c11.63,3.09 23.55,-3.83 26.63,-15.44 3.09,-11.62 -3.83,-23.54 -15.44,-26.62 -11.62,-3.1 -23.55,3.83 -26.62,15.43 -3.09,11.63 3.83,23.55 15.43,26.63zm24.45 -91.92c11.62,3.09 23.55,-3.83 26.63,-15.44 3.09,-11.62 -3.83,-23.55 -15.44,-26.63 -11.62,-3.09 -23.54,3.83 -26.62,15.44 -3.1,11.62 3.82,23.54 15.43,26.63zm-89.4 223.54c11.62,3.09 23.54,-3.82 26.62,-15.44 3.1,-11.61 -3.82,-23.54 -15.43,-26.62 -11.62,-3.09 -23.55,3.83 -26.63,15.44 -3.09,11.62 3.83,23.54 15.44,26.62zm24.44 -91.92c11.62,3.09 23.55,-3.83 26.63,-15.44 3.1,-11.62 -3.83,-23.55 -15.44,-26.63 -11.62,-3.09 -23.54,3.83 -26.62,15.44 -3.1,11.62 3.83,23.55 15.43,26.63zm24.45 -91.93c11.62,3.1 23.55,-3.83 26.63,-15.44 3.09,-11.62 -3.83,-23.54 -15.44,-26.62 -11.62,-3.1 -23.54,3.83 -26.62,15.44 -3.1,11.62 3.82,23.54 15.43,26.62zm24.45 -91.92c11.62,3.09 23.54,-3.83 26.62,-15.44 3.1,-11.62 -3.82,-23.54 -15.43,-26.63 -11.62,-3.09 -23.54,3.83 -26.63,15.44 -3.09,11.62 3.83,23.54 15.44,26.63zm-86.41 221.84c11.62,3.09 23.54,-3.83 26.63,-15.44 3.09,-11.62 -3.84,-23.54 -15.46,-26.62 -11.62,-3.1 -23.54,3.81 -26.62,15.43 -3.09,11.62 3.83,23.54 15.44,26.63zm24.45 -91.93c11.61,3.1 23.54,-3.82 26.62,-15.44 3.09,-11.61 -3.83,-23.54 -15.44,-26.62 -11.62,-3.1 -23.54,3.83 -26.62,15.44 -3.1,11.62 3.82,23.54 15.44,26.62zm24.44 -91.92c11.62,3.09 23.55,-3.83 26.63,-15.44 3.09,-11.62 -3.83,-23.54 -15.44,-26.63 -11.62,-3.09 -23.54,3.83 -26.62,15.44 -3.1,11.62 3.82,23.54 15.43,26.63zm-89.4 223.56c11.62,3.09 23.54,-3.83 26.62,-15.46 3.1,-11.61 -3.83,-23.54 -15.44,-26.62 -11.61,-3.09 -23.54,3.83 -26.62,15.44 -3.1,11.62 3.83,23.54 15.44,26.63zm24.44 -91.94c11.63,3.09 23.55,-3.83 26.63,-15.44 3.09,-11.62 -3.83,-23.54 -15.44,-26.63 -11.62,-3.09 -23.54,3.83 -26.62,15.44 -3.1,11.63 3.81,23.55 15.43,26.63zm24.45 -91.92c11.62,3.09 23.55,-3.83 26.63,-15.46 3.09,-11.62 -3.83,-23.54 -15.44,-26.62 -11.62,-3.1 -23.55,3.83 -26.63,15.44 -3.09,11.62 3.83,23.54 15.44,26.63zm24.45 -91.93c11.62,3.09 23.54,-3.83 26.62,-15.44 3.1,-11.62 -3.82,-23.54 -15.43,-26.63 -11.62,-3.09 -23.55,3.83 -26.63,15.44 -3.09,11.62 3.83,23.55 15.44,26.63zm-110.86 313.78c11.62,3.09 23.55,-3.83 26.63,-15.44 3.09,-11.62 -3.83,-23.55 -15.44,-26.63 -11.63,-3.09 -23.55,3.83 -26.63,15.44 -3.1,11.62 3.83,23.54 15.44,26.63zm24.45 -91.93c11.62,3.09 23.54,-3.83 26.62,-15.44 3.09,-11.62 -3.83,-23.54 -15.44,-26.62 -11.62,-3.09 -23.54,3.83 -26.62,15.44 -3.1,11.61 3.81,23.54 15.44,26.62zm24.44 -91.92c11.62,3.09 23.55,-3.83 26.63,-15.44 3.09,-11.62 -3.83,-23.55 -15.44,-26.63 -11.62,-3.09 -23.54,3.83 -26.62,15.44 -3.1,11.62 3.81,23.54 15.43,26.63zm24.45 -91.94c11.62,3.09 23.55,-3.83 26.63,-15.44 3.09,-11.62 -3.83,-23.54 -15.44,-26.63 -11.62,-3.09 -23.54,3.83 -26.62,15.44 -3.1,11.62 3.82,23.55 15.43,26.63zm-89.4 223.56c11.62,3.09 23.54,-3.83 26.62,-15.44 3.09,-11.62 -3.83,-23.55 -15.44,-26.63 -11.61,-3.09 -23.54,3.83 -26.62,15.44 -3.1,11.62 3.83,23.54 15.44,26.63zm24.44 -91.94c11.62,3.09 23.55,-3.83 26.63,-15.44 3.09,-11.62 -3.83,-23.54 -15.44,-26.63 -11.62,-3.09 -23.54,3.84 -26.62,15.44 -3.1,11.62 3.83,23.55 15.43,26.63zm24.45 -91.92c11.62,3.09 23.55,-3.83 26.63,-15.44 3.09,-11.62 -3.83,-23.55 -15.44,-26.63 -11.62,-3.09 -23.54,3.83 -26.63,15.44 -3.09,11.62 3.83,23.54 15.44,26.63zm24.45 -91.93c11.62,3.09 23.55,-3.83 26.63,-15.44 3.09,-11.62 -3.83,-23.54 -15.44,-26.63 -11.62,-3.09 -23.55,3.83 -26.63,15.46 -3.09,11.61 3.83,23.54 15.44,26.62zm-110.86 313.78c11.62,3.09 23.54,-3.83 26.63,-15.44 3.09,-11.62 -3.83,-23.54 -15.45,-26.63 -11.61,-3.09 -23.54,3.83 -26.62,15.44 -3.09,11.62 3.83,23.55 15.44,26.63zm24.45 -91.93c11.62,3.1 23.54,-3.83 26.62,-15.44 3.1,-11.62 -3.83,-23.54 -15.43,-26.62 -11.63,-3.1 -23.55,3.83 -26.63,15.44 -3.1,11.62 3.81,23.54 15.44,26.62zm24.44 -91.92c11.62,3.09 23.55,-3.83 26.63,-15.44 3.09,-11.62 -3.83,-23.55 -15.44,-26.63 -11.62,-3.09 -23.54,3.83 -26.62,15.44 -3.1,11.62 3.81,23.55 15.43,26.63zm24.45 -91.94c11.62,3.09 23.54,-3.83 26.63,-15.44 3.09,-11.62 -3.83,-23.54 -15.44,-26.62 -11.62,-3.1 -23.54,3.82 -26.63,15.43 -3.09,11.62 3.83,23.55 15.44,26.63zm-89.42 223.56c11.63,3.09 23.55,-3.83 26.63,-15.44 3.09,-11.62 -3.83,-23.54 -15.44,-26.63 -11.61,-3.09 -23.54,3.83 -26.62,15.44 -3.1,11.62 3.83,23.55 15.43,26.63zm24.45 -91.94c11.62,3.1 23.55,-3.83 26.63,-15.43 3.09,-11.62 -3.83,-23.55 -15.44,-26.63 -11.62,-3.09 -23.54,3.83 -26.63,15.44 -3.09,11.62 3.83,23.54 15.44,26.62zm24.45 -91.92c11.62,3.09 23.54,-3.83 26.63,-15.44 3.09,-11.62 -3.83,-23.55 -15.44,-26.63 -11.62,-3.09 -23.54,3.83 -26.63,15.44 -3.09,11.62 3.83,23.54 15.44,26.63zm24.45 -91.93c11.62,3.1 23.55,-3.83 26.63,-15.44 3.09,-11.62 -3.83,-23.54 -15.44,-26.63 -11.62,-3.09 -23.55,3.83 -26.63,15.45 -3.09,11.62 3.83,23.54 15.44,26.62zm-110.86 313.78c11.62,3.09 23.55,-3.83 26.63,-15.44 3.09,-11.62 -3.83,-23.54 -15.44,-26.62 -11.62,-3.1 -23.55,3.82 -26.63,15.43 -3.09,11.62 3.83,23.54 15.44,26.63zm24.45 -91.93c11.62,3.09 23.54,-3.81 26.62,-15.43 3.1,-11.62 -3.83,-23.55 -15.44,-26.63 -11.62,-3.09 -23.54,3.83 -26.62,15.44 -3.1,11.61 3.83,23.54 15.44,26.62zm24.44 -91.92c11.62,3.09 23.55,-3.83 26.63,-15.44 3.09,-11.62 -3.83,-23.54 -15.44,-26.62 -11.62,-3.1 -23.54,3.81 -26.63,15.43 -3.09,11.62 3.83,23.55 15.44,26.63zm24.45 -91.94c11.62,3.09 23.55,-3.83 26.63,-15.44 3.09,-11.62 -3.83,-23.54 -15.44,-26.62 -11.62,-3.1 -23.54,3.83 -26.63,15.43 -3.09,11.63 3.83,23.55 15.44,26.63zm-89.4 223.56c11.61,3.1 23.54,-3.83 26.62,-15.44 3.1,-11.62 -3.83,-23.54 -15.44,-26.62 -11.61,-3.1 -23.54,3.83 -26.62,15.43 -3.1,11.63 3.83,23.55 15.44,26.63zm24.44 -91.92c11.62,3.09 23.55,-3.83 26.63,-15.44 3.09,-11.62 -3.83,-23.55 -15.44,-26.63 -11.62,-3.09 -23.54,3.83 -26.62,15.44 -3.1,11.62 3.82,23.54 15.43,26.63zm24.45 -91.93c11.62,3.09 23.54,-3.83 26.63,-15.44 3.09,-11.62 -3.83,-23.54 -15.44,-26.63 -11.62,-3.09 -23.55,3.83 -26.63,15.44 -3.09,11.63 3.83,23.55 15.44,26.63zm24.45 -91.92c11.62,3.09 23.54,-3.83 26.62,-15.44 3.1,-11.63 -3.83,-23.55 -15.44,-26.63 -11.61,-3.1 -23.54,3.83 -26.62,15.44 -3.09,11.62 3.83,23.54 15.44,26.63zm-110.86 313.77c11.62,3.09 23.54,-3.83 26.62,-15.44 3.1,-11.62 -3.81,-23.54 -15.43,-26.62 -11.62,-3.09 -23.55,3.82 -26.63,15.44 -3.09,11.62 3.83,23.54 15.44,26.62zm24.45 -91.92c11.61,3.09 23.54,-3.84 26.62,-15.44 3.09,-11.62 -3.83,-23.54 -15.44,-26.63 -11.62,-3.09 -23.54,3.83 -26.62,15.44 -3.1,11.62 3.83,23.54 15.44,26.63zm24.44 -91.93c11.62,3.09 23.55,-3.83 26.63,-15.44 3.09,-11.62 -3.83,-23.54 -15.44,-26.62 -11.62,-3.1 -23.54,3.81 -26.63,15.43 -3.09,11.63 3.83,23.55 15.44,26.63zm24.45 -91.92c11.62,3.09 23.54,-3.83 26.62,-15.45 3.1,-11.61 -3.82,-23.54 -15.43,-26.62 -11.63,-3.1 -23.55,3.83 -26.63,15.44 -3.09,11.61 3.83,23.54 15.44,26.63zm-89.41 223.54c11.62,3.1 23.55,-3.82 26.63,-15.43 3.09,-11.63 -3.83,-23.55 -15.44,-26.63 -11.62,-3.09 -23.54,3.83 -26.62,15.44 -3.1,11.62 3.83,23.54 15.43,26.62zm24.45 -91.92c11.62,3.09 23.54,-3.83 26.63,-15.44 3.09,-11.62 -3.83,-23.55 -15.44,-26.63 -11.62,-3.09 -23.54,3.83 -26.62,15.44 -3.1,11.62 3.82,23.54 15.43,26.63zm24.45 -91.93c11.62,3.09 23.54,-3.83 26.63,-15.44 3.09,-11.62 -3.83,-23.54 -15.44,-26.62 -11.62,-3.1 -23.54,3.81 -26.63,15.44 -3.09,11.62 3.83,23.54 15.44,26.62zm24.45 -91.92c11.61,3.09 23.54,-3.83 26.62,-15.44 3.1,-11.62 -3.82,-23.55 -15.43,-26.63 -11.63,-3.1 -23.55,3.83 -26.63,15.44 -3.09,11.62 3.83,23.54 15.44,26.63zm-110.86 313.78c11.62,3.09 23.54,-3.84 26.62,-15.45 3.09,-11.62 -3.83,-23.54 -15.43,-26.62 -11.63,-3.09 -23.55,3.82 -26.63,15.44 -3.09,11.61 3.83,23.54 15.44,26.63zm24.45 -91.93c11.61,3.09 23.54,-3.83 26.62,-15.44 3.09,-11.62 -3.83,-23.54 -15.43,-26.63 -11.63,-3.09 -23.55,3.83 -26.64,15.44 -3.09,11.62 3.83,23.54 15.46,26.63zm24.44 -91.92c11.62,3.07 23.55,-3.84 26.63,-15.46 3.09,-11.62 -3.83,-23.54 -15.44,-26.62 -11.62,-3.09 -23.54,3.83 -26.63,15.44 -3.09,11.62 3.83,23.54 15.44,26.63zm24.45 -91.95c11.62,3.1 23.54,-3.82 26.63,-15.43 3.09,-11.63 -3.83,-23.55 -15.44,-26.63 -11.62,-3.09 -23.55,3.83 -26.63,15.44 -3.09,11.62 3.83,23.54 15.44,26.62zm-89.4 223.55c11.61,3.1 23.52,-3.82 26.62,-15.43 3.09,-11.62 -3.83,-23.55 -15.44,-26.63 -11.61,-3.09 -23.54,3.83 -26.62,15.44 -3.1,11.62 3.83,23.54 15.44,26.62zm24.44 -91.92c11.62,3.09 23.54,-3.83 26.63,-15.44 3.09,-11.62 -3.83,-23.54 -15.44,-26.63 -11.62,-3.09 -23.54,3.83 -26.63,15.44 -3.09,11.62 3.83,23.55 15.44,26.63zm24.45 -91.92c11.62,3.09 23.54,-3.84 26.63,-15.44 3.09,-11.63 -3.83,-23.55 -15.44,-26.63 -11.62,-3.1 -23.55,3.83 -26.63,15.43 -3.09,11.63 3.83,23.55 15.44,26.64zm24.45 -91.93c11.61,3.09 23.54,-3.83 26.62,-15.44 3.1,-11.62 -3.82,-23.55 -15.43,-26.63 -11.62,-3.09 -23.55,3.83 -26.63,15.44 -3.09,11.62 3.83,23.55 15.44,26.63zm-110.87 313.78c11.63,3.09 23.55,-3.84 26.63,-15.44 3.09,-11.62 -3.82,-23.55 -15.44,-26.63 -11.62,-3.09 -23.54,3.83 -26.62,15.44 -3.1,11.62 3.83,23.54 15.43,26.63zm24.45 -91.93c11.62,3.09 23.55,-3.83 26.63,-15.44 3.09,-11.62 -3.83,-23.54 -15.44,-26.63 -11.62,-3.09 -23.55,3.83 -26.63,15.44 -3.09,11.62 3.83,23.54 15.44,26.63zm24.45 -91.92c11.62,3.09 23.54,-3.84 26.63,-15.44 3.09,-11.62 -3.83,-23.55 -15.44,-26.63 -11.62,-3.09 -23.55,3.83 -26.63,15.44 -3.09,11.62 3.83,23.54 15.44,26.63zm24.45 -91.94c11.62,3.09 23.55,-3.83 26.63,-15.44 3.09,-11.62 -3.84,-23.55 -15.44,-26.63 -11.62,-3.09 -23.55,3.83 -26.63,15.44 -3.09,11.62 3.83,23.55 15.44,26.63zm-89.41 223.56c11.62,3.09 23.55,-3.83 26.63,-15.44 3.1,-11.62 -3.83,-23.55 -15.44,-26.63 -11.62,-3.09 -23.54,3.83 -26.62,15.44 -3.1,11.62 3.83,23.55 15.43,26.63zm24.45 -91.94c11.62,3.09 23.54,-3.83 26.63,-15.44 3.09,-11.62 -3.83,-23.54 -15.44,-26.62 -11.62,-3.1 -23.54,3.82 -26.63,15.43 -3.09,11.62 3.83,23.55 15.44,26.63zm24.45 -91.92c11.62,3.09 23.54,-3.84 26.63,-15.44 3.09,-11.62 -3.83,-23.54 -15.44,-26.63 -11.62,-3.1 -23.55,3.83 -26.63,15.44 -3.09,11.62 3.83,23.54 15.44,26.63zm24.45 -91.93c11.62,3.09 23.54,-3.83 26.62,-15.44 3.1,-11.62 -3.83,-23.54 -15.44,-26.63 -11.61,-3.09 -23.54,3.83 -26.62,15.44 -3.09,11.62 3.83,23.55 15.44,26.63zm-110.86 313.78c11.62,3.09 23.54,-3.83 26.62,-15.44 3.1,-11.62 -3.83,-23.54 -15.44,-26.63 -11.62,-3.09 -23.54,3.83 -26.62,15.44 -3.09,11.62 3.83,23.54 15.44,26.63zm24.45 -91.94c11.61,3.09 23.54,-3.83 26.62,-15.43 3.09,-11.63 -3.83,-23.55 -15.44,-26.63 -11.62,-3.1 -23.54,3.83 -26.62,15.43 -3.1,11.63 3.81,23.55 15.44,26.63zm24.44 -91.92c11.62,3.09 23.55,-3.83 26.63,-15.44 3.09,-11.62 -3.83,-23.55 -15.44,-26.63 -11.62,-3.09 -23.55,3.83 -26.63,15.44 -3.09,11.62 3.83,23.55 15.44,26.63zm24.45 -91.94c11.62,3.09 23.54,-3.83 26.63,-15.44 3.09,-11.62 -3.83,-23.54 -15.44,-26.62 -11.62,-3.1 -23.55,3.82 -26.63,15.43 -3.09,11.63 3.83,23.55 15.44,26.63zm-89.42 223.56c11.62,3.09 23.55,-3.83 26.63,-15.44 3.09,-11.62 -3.83,-23.54 -15.44,-26.63 -11.62,-3.09 -23.54,3.83 -26.62,15.44 -3.1,11.62 3.83,23.55 15.43,26.63zm24.45 -91.94c11.62,3.1 23.55,-3.83 26.63,-15.44 3.09,-11.62 -3.83,-23.54 -15.44,-26.62 -11.62,-3.1 -23.54,3.83 -26.63,15.43 -3.09,11.62 3.83,23.55 15.44,26.63zm24.45 -91.92c11.62,3.09 23.54,-3.83 26.63,-15.44 3.09,-11.62 -3.83,-23.55 -15.44,-26.63 -11.62,-3.09 -23.55,3.83 -26.63,15.44 -3.09,11.62 3.83,23.54 15.44,26.63zm24.44 -91.93c11.63,3.09 23.55,-3.83 26.63,-15.44 3.09,-11.62 -3.81,-23.54 -15.44,-26.62 -11.62,-3.1 -23.54,3.82 -26.62,15.44 -3.09,11.62 3.83,23.54 15.43,26.62zm-110.85 313.78c11.61,3.09 23.54,-3.83 26.62,-15.44 3.09,-11.62 -3.81,-23.54 -15.44,-26.62 -11.62,-3.1 -23.54,3.83 -26.62,15.43 -3.1,11.62 3.83,23.55 15.44,26.63zm24.45 -91.94c11.61,3.09 23.54,-3.81 26.62,-15.44 3.09,-11.62 -3.83,-23.54 -15.44,-26.62 -11.62,-3.09 -23.54,3.83 -26.62,15.44 -3.1,11.62 3.81,23.54 15.44,26.62zm24.44 -91.92c11.62,3.09 23.54,-3.83 26.63,-15.44 3.09,-11.62 -3.83,-23.55 -15.44,-26.63 -11.62,-3.09 -23.55,3.83 -26.63,15.44 -3.09,11.62 3.83,23.55 15.44,26.63zm24.45 -91.93c11.62,3.09 23.54,-3.83 26.62,-15.44 3.09,-11.62 -3.83,-23.54 -15.43,-26.62 -11.62,-3.1 -23.55,3.82 -26.63,15.43 -3.09,11.63 3.83,23.55 15.44,26.63zm-89.42 223.55c11.62,3.09 23.55,-3.83 26.63,-15.44 3.09,-11.62 -3.83,-23.54 -15.44,-26.63 -11.62,-3.09 -23.54,3.83 -26.62,15.44 -3.09,11.63 3.82,23.55 15.43,26.63zm24.45 -91.94c11.62,3.1 23.54,-3.81 26.63,-15.43 3.09,-11.63 -3.83,-23.55 -15.44,-26.63 -11.62,-3.09 -23.55,3.83 -26.63,15.44 -3.09,11.62 3.83,23.54 15.44,26.62zm24.45 -91.92c11.62,3.09 23.54,-3.83 26.62,-15.44 3.1,-11.62 -3.81,-23.55 -15.43,-26.63 -11.62,-3.09 -23.55,3.83 -26.63,15.44 -3.09,11.62 3.83,23.55 15.44,26.63zm24.45 -91.93c11.61,3.1 23.54,-3.83 26.62,-15.43 3.1,-11.63 -3.83,-23.55 -15.44,-26.63 -11.62,-3.1 -23.54,3.82 -26.62,15.44 -3.09,11.62 3.83,23.54 15.44,26.62zm-86.42 221.84c11.62,3.1 23.55,-3.81 26.63,-15.43 3.09,-11.63 -3.83,-23.55 -15.44,-26.63 -11.62,-3.09 -23.54,3.83 -26.63,15.44 -3.09,11.62 3.83,23.54 15.44,26.62zm24.45 -91.92c11.62,3.09 23.54,-3.83 26.63,-15.44 3.09,-11.62 -3.83,-23.54 -15.44,-26.62 -11.62,-3.1 -23.54,3.81 -26.63,15.43 -3.09,11.62 3.83,23.55 15.44,26.63zm24.45 -91.93c11.61,3.1 23.54,-3.82 26.62,-15.44 3.1,-11.61 -3.83,-23.54 -15.43,-26.62 -11.62,-3.09 -23.55,3.82 -26.63,15.43 -3.09,11.63 3.83,23.55 15.44,26.63zm-64.97 131.63c11.62,3.09 23.54,-3.83 26.63,-15.44 3.09,-11.62 -3.83,-23.55 -15.44,-26.63 -11.62,-3.09 -23.55,3.83 -26.63,15.44 -3.09,11.62 3.83,23.54 15.44,26.63zm24.44 -91.93c11.63,3.09 23.55,-3.83 26.63,-15.44 3.1,-11.62 -3.83,-23.54 -15.43,-26.62 -11.63,-3.1 -23.55,3.81 -26.63,15.43 -3.09,11.63 3.83,23.55 15.43,26.63zm24.45 -91.92c11.62,3.09 23.55,-3.84 26.63,-15.44 3.09,-11.62 -3.83,-23.55 -15.44,-26.63 -11.62,-3.09 -23.54,3.83 -26.63,15.44 -3.09,11.62 3.84,23.54 15.44,26.63zm-126.82 289.8c-0.81,5.79 0.79,11.49 4.13,15.96l0.01 0.01 5.86 22.68 -592.02 -153.66 0.13 -0.14 0.18 0.19 1.63 -1.63 43.98 -24.08c-0.51,10.05 6.03,19.44 16.15,22.13 11.62,3.09 23.54,-3.83 26.63,-15.44 2.59,-9.76 -1.87,-19.72 -10.24,-24.5l9.81 -5.38c2.81,3.46 6.68,6.09 11.32,7.33 11.62,3.09 23.54,-3.83 26.63,-15.44 1.12,-4.25 0.91,-8.55 -0.38,-12.44l-15.07 8.24 70.03 -38.32c-1.11,1.79 -1.98,3.76 -2.54,5.9 -3.09,11.62 3.83,23.54 15.44,26.62 11.62,3.09 23.54,-3.83 26.62,-15.44 3.1,-11.62 -3.83,-23.54 -15.43,-26.62 -1.78,-0.47 -3.56,-0.72 -5.31,-0.74l-5.88 3.21 22.54 -12.33c2.28,6.61 7.71,12.01 14.98,13.94 11.62,3.09 23.54,-3.83 26.62,-15.44 1.84,-6.89 0.14,-13.9 -3.96,-19.1l-28.85 15.79 258.61 -141.56 0.01 0 -0.01 0 -2.25 1.24c-1.02,1.7 -1.81,3.57 -2.35,5.59 -2.88,10.8 2.9,21.85 13.05,25.85l0.01 0 5.36 20.78c-1.02,1.71 -1.83,3.57 -2.36,5.6 -2.59,9.71 1.81,19.64 10.14,24.44l5.93 22.91 -0.01 0.01c-1.32,1.96 -2.34,4.17 -2.98,6.59 -2.69,10.11 2.2,20.45 11.16,25l0.01 0 6.15 23.75 -0.01 0.01c-0.5,1.11 -0.91,2.25 -1.24,3.47 -2.37,8.89 1.13,17.96 8.12,23.11l0.01 0.01 6.77 26.18 0 0.01c-0.77,1.43 -1.39,2.98 -1.83,4.62 -2.49,9.34 1.5,18.87 9.19,23.86l0.01 0.01 7.11 27.51c-0.08,0.29 -0.16,0.57 -0.24,0.86 -2.1,7.92 0.45,16 5.98,21.3l0.01 0.01 7.84 30.33c-0.29,0.74 -0.53,1.5 -0.74,2.3 -2.25,8.46 0.8,17.07 7.11,22.32l0.01 0.01 8.42 32.54 0 0.02zm64.86 -159.9c11.62,3.09 23.54,-3.83 26.63,-15.44 3.09,-11.62 -3.83,-23.54 -15.44,-26.62 -11.62,-3.1 -23.54,3.81 -26.63,15.43 -3.09,11.62 3.83,23.55 15.44,26.63zm24.45 -91.93c11.62,3.1 23.54,-3.82 26.63,-15.43 3.09,-11.62 -3.84,-23.55 -15.44,-26.63 -11.62,-3.09 -23.55,3.83 -26.63,15.44 -3.09,11.62 3.83,23.54 15.44,26.62zm-87.36 288.39c-2.06,-7.07 -7.68,-12.95 -15.32,-14.98 -44.86,-11.91 -7.86,8.96 15.32,14.98zm46.84 -248.7c11.62,3.1 23.54,-3.83 26.63,-15.44 3.09,-11.62 -3.83,-23.54 -15.44,-26.62 -11.62,-3.1 -23.55,3.81 -26.63,15.44 -3.09,11.62 3.83,23.54 15.44,26.62zm24.44 -91.92c11.63,3.09 23.55,-3.83 26.63,-15.44 3.1,-11.62 -3.83,-23.55 -15.44,-26.63 -11.62,-3.09 -23.54,3.83 -26.62,15.44 -3.1,11.62 3.83,23.54 15.43,26.63zm-110.86 313.78c11.62,3.09 23.55,-3.84 26.63,-15.44 3.09,-11.62 -3.83,-23.55 -15.44,-26.63 -11.62,-3.1 -23.54,3.83 -26.62,15.44 -3.1,11.62 3.81,23.54 15.43,26.63zm73.35 -275.79c11.62,3.09 23.54,-3.83 26.62,-15.44 3.09,-11.62 -3.83,-23.55 -15.44,-26.63 -11.61,-3.09 -23.54,3.83 -26.62,15.44 -3.09,11.62 3.83,23.54 15.44,26.63zm-102.67 273.41c-7.86,-2.09 -15.87,0.4 -21.18,5.84 20.33,5.28 66.73,6.26 21.18,-5.84zm13.26 -49.86c11.62,3.09 23.54,-3.83 26.63,-15.44 3.09,-11.62 -3.83,-23.55 -15.44,-26.63 -11.62,-3.09 -23.54,3.83 -26.63,15.44 -3.09,11.62 3.83,23.54 15.44,26.63zm73.35 -275.79c11.61,3.09 23.54,-3.83 26.62,-15.44 3.09,-11.62 -3.83,-23.55 -15.44,-26.63 -11.61,-3.09 -23.54,3.83 -26.63,15.44 -3.08,11.62 3.84,23.54 15.45,26.63zm-110.87 313.78c11.63,3.09 23.55,-3.83 26.63,-15.44 3.09,-11.62 -3.83,-23.54 -15.44,-26.63 -11.62,-3.09 -23.54,3.83 -26.62,15.44 -3.09,11.62 3.81,23.54 15.43,26.63zm24.45 -91.94c11.62,3.09 23.54,-3.83 26.63,-15.44 3.09,-11.62 -3.83,-23.54 -15.44,-26.62 -11.62,-3.1 -23.54,3.83 -26.63,15.43 -3.09,11.62 3.83,23.55 15.44,26.63zm-38.26 105.26c-1.87,-7.41 -7.61,-13.61 -15.51,-15.71 -8,-2.13 -16.14,0.49 -21.44,6.12l36.96 9.59zm-2.25 -65.57c11.62,3.09 23.54,-3.83 26.63,-15.44 3.09,-11.62 -3.83,-23.55 -15.44,-26.63 -11.62,-3.09 -23.54,3.83 -26.63,15.44 -3.09,11.62 3.83,23.55 15.44,26.63zm24.45 -91.93c11.62,3.09 23.54,-3.82 26.63,-15.44 3.09,-11.62 -3.83,-23.54 -15.44,-26.62 -11.62,-3.1 -23.54,3.83 -26.63,15.44 -3.09,11.62 3.83,23.54 15.44,26.62zm-61.97 129.92c11.62,3.09 23.55,-3.83 26.63,-15.44 3.09,-11.62 -3.83,-23.55 -15.44,-26.63 -11.62,-3.09 -23.54,3.83 -26.62,15.44 -3.1,11.62 3.83,23.55 15.43,26.63zm24.45 -91.94c11.62,3.09 23.54,-3.81 26.63,-15.44 3.09,-11.61 -3.83,-23.54 -15.44,-26.62 -11.62,-3.09 -23.55,3.83 -26.63,15.44 -3.09,11.62 3.83,23.54 15.44,26.62zm24.45 -91.92c11.62,3.09 23.54,-3.83 26.63,-15.44 3.07,-11.62 -3.83,-23.54 -15.44,-26.63 -11.62,-3.09 -23.55,3.83 -26.63,15.44 -3.09,11.62 3.83,23.55 15.44,26.63zm-62.62 197.54c-1.78,-7.56 -7.57,-13.93 -15.61,-16.07 -8.13,-2.16 -16.4,0.58 -21.7,6.39l37.3 9.68zm-2.35 -65.93c11.62,3.09 23.54,-3.83 26.63,-15.44 3.09,-11.62 -3.83,-23.54 -15.44,-26.63 -11.62,-3.09 -23.54,3.84 -26.63,15.44 -3.09,11.63 3.83,23.55 15.44,26.63zm24.45 -91.93c11.62,3.1 23.54,-3.82 26.62,-15.43 3.1,-11.63 -3.81,-23.55 -15.43,-26.63 -11.62,-3.1 -23.54,3.83 -26.63,15.44 -3.09,11.62 3.83,23.54 15.44,26.62zm24.45 -91.92c11.62,3.09 23.54,-3.83 26.62,-15.44 3.1,-11.62 -3.83,-23.55 -15.44,-26.63 -11.62,-3.09 -23.54,3.83 -26.62,15.44 -3.09,11.62 3.83,23.55 15.44,26.63zm-86.42 221.84c11.62,3.09 23.55,-3.83 26.63,-15.44 3.09,-11.62 -3.83,-23.54 -15.44,-26.62 -11.62,-3.09 -23.54,3.82 -26.62,15.44 -3.1,11.62 3.82,23.54 15.43,26.62zm24.45 -91.94c11.62,3.09 23.55,-3.83 26.63,-15.44 3.09,-11.61 -3.83,-23.54 -15.44,-26.62 -11.62,-3.09 -23.54,3.83 -26.63,15.44 -3.09,11.62 3.83,23.54 15.44,26.62zm24.45 -91.92c11.62,3.09 23.54,-3.83 26.63,-15.44 3.07,-11.62 -3.83,-23.54 -15.44,-26.63 -11.62,-3.09 -23.55,3.83 -26.63,15.44 -3.09,11.62 3.83,23.55 15.44,26.63zm24.45 -91.92c11.62,3.09 23.54,-3.84 26.62,-15.46 3.09,-11.61 -3.83,-23.54 -15.44,-26.62 -11.62,-3.09 -23.54,3.83 -26.62,15.43 -3.09,11.63 3.83,23.55 15.44,26.65zm-86.99 289.84c-1.68,-7.73 -7.51,-14.26 -15.69,-16.44 -8.25,-2.2 -16.66,0.66 -21.95,6.67l37.64 9.77zm-2.43 -66.3c11.62,3.09 23.55,-3.82 26.63,-15.44 3.09,-11.62 -3.83,-23.54 -15.44,-26.62 -11.62,-3.09 -23.55,3.83 -26.63,15.43 -3.09,11.62 3.83,23.55 15.44,26.63zm24.45 -91.93c11.62,3.1 23.54,-3.82 26.62,-15.43 3.1,-11.62 -3.83,-23.55 -15.43,-26.63 -11.62,-3.09 -23.55,3.83 -26.63,15.44 -3.09,11.62 3.83,23.54 15.44,26.62zm24.44 -91.92c11.63,3.09 23.55,-3.83 26.63,-15.44 3.1,-11.62 -3.83,-23.54 -15.44,-26.63 -11.62,-3.09 -23.54,3.83 -26.62,15.44 -3.09,11.62 3.83,23.55 15.43,26.63zm30.82 -91.21c6.88,-0.24 13.26,-3.76 17.14,-9.39l-17.14 9.39zm-117.23 313.05c11.62,3.1 23.55,-3.83 26.63,-15.44 3.09,-11.62 -3.83,-23.54 -15.44,-26.62 -11.62,-3.09 -23.54,3.83 -26.63,15.43 -3.09,11.63 3.83,23.55 15.44,26.63zm24.45 -91.92c11.62,3.09 23.54,-3.83 26.63,-15.44 3.09,-11.62 -3.83,-23.55 -15.44,-26.63 -11.63,-3.09 -23.55,3.83 -26.63,15.44 -3.09,11.62 3.83,23.54 15.44,26.63zm24.45 -91.93c11.62,3.09 23.54,-3.83 26.62,-15.44 3.1,-11.62 -3.82,-23.54 -15.43,-26.62 -11.63,-3.1 -23.55,3.83 -26.63,15.43 -3.1,11.62 3.83,23.55 15.44,26.63zm24.45 -91.93c11.62,3.1 23.54,-3.83 26.62,-15.44 1.11,-4.17 0.92,-8.38 -0.3,-12.21l-37.49 20.52c2.79,3.36 6.61,5.93 11.17,7.13zm-86.91 290.21c-1.57,-7.88 -7.47,-14.59 -15.77,-16.8 -8.38,-2.22 -16.92,0.75 -22.18,6.95l37.95 9.85zm-2.51 -66.65c11.62,3.09 23.54,-3.82 26.63,-15.44 3.09,-11.62 -3.83,-23.54 -15.44,-26.62 -11.62,-3.09 -23.55,3.83 -26.63,15.43 -3.09,11.63 3.83,23.55 15.44,26.63zm24.45 -91.92c11.61,3.09 23.54,-3.83 26.63,-15.44 3.09,-11.62 -3.83,-23.55 -15.44,-26.63 -11.62,-3.09 -23.55,3.83 -26.63,15.44 -3.09,11.62 3.83,23.54 15.44,26.63zm24.45 -91.93c11.62,3.09 23.54,-3.83 26.62,-15.44 2.58,-9.68 -1.79,-19.57 -10.05,-24.39l-32.74 17.92c-0.42,9.98 6.12,19.25 16.16,21.92zm-86.42 221.84c11.62,3.1 23.55,-3.82 26.63,-15.44 3.09,-11.61 -3.83,-23.54 -15.44,-26.62 -11.62,-3.09 -23.54,3.83 -26.62,15.44 -3.1,11.62 3.82,23.54 15.43,26.62zm24.45 -91.92c11.62,3.09 23.55,-3.83 26.63,-15.44 3.09,-11.62 -3.83,-23.54 -15.44,-26.63 -11.62,-3.09 -23.55,3.83 -26.63,15.44 -3.09,11.62 3.83,23.54 15.44,26.63zm24.45 -91.93c11.62,3.1 23.54,-3.82 26.62,-15.44 3.09,-11.62 -3.83,-23.54 -15.44,-26.62 -11.62,-3.09 -23.54,3.83 -26.62,15.43 -3.1,11.62 3.83,23.55 15.44,26.63zm-62.4 198.63c-1.46,-8.03 -7.41,-14.91 -15.83,-17.14 -8.51,-2.27 -17.18,0.83 -22.42,7.21l38.25 9.93zm-2.57 -67c11.62,3.07 23.54,-3.83 26.63,-15.46 3.09,-11.61 -3.83,-23.54 -15.45,-26.62 -11.61,-3.09 -23.54,3.83 -26.62,15.44 -3.09,11.62 3.83,23.54 15.44,26.63zm24.45 -91.93c11.62,3.09 23.54,-3.83 26.63,-15.44 3.09,-11.62 -3.84,-23.54 -15.45,-26.63 -11.61,-3.09 -23.54,3.83 -26.62,15.44 -3.09,11.62 3.83,23.55 15.44,26.63zm-61.97 129.91c11.62,3.1 23.55,-3.82 26.63,-15.43 3.09,-11.62 -3.83,-23.55 -15.44,-26.63 -11.62,-3.09 -23.54,3.83 -26.63,15.44 -3.09,11.62 3.83,23.54 15.44,26.62zm24.45 -91.92c11.62,3.09 23.54,-3.83 26.63,-15.44 3.09,-11.62 -3.83,-23.54 -15.44,-26.62 -11.62,-3.1 -23.55,3.82 -26.63,15.43 -3.09,11.62 3.83,23.55 15.44,26.63zm24.45 -91.93c11.61,3.09 23.54,-3.82 26.62,-15.44 0.37,-1.38 0.59,-2.76 0.69,-4.13l-32.21 17.63c1.51,0.82 3.14,1.48 4.89,1.94zm-62.33 198.99c-1.35,-8.18 -7.35,-15.24 -15.89,-17.5 -8.63,-2.3 -17.42,0.94 -22.65,7.5l38.54 10zm-2.63 -67.36c11.62,3.09 23.54,-3.83 26.63,-15.44 3.09,-11.62 -3.83,-23.55 -15.44,-26.63 -11.62,-3.09 -23.55,3.83 -26.63,15.44 -3.09,11.62 3.83,23.54 15.44,26.63zm-37.52 37.99c11.62,3.09 23.55,-3.83 26.63,-15.44 3.09,-11.62 -3.83,-23.54 -15.44,-26.63 -11.62,-3.09 -23.54,3.83 -26.63,15.44 -3.09,11.62 3.83,23.54 15.44,26.63zm-13.39 15.48c-1.24,-8.34 -7.28,-15.56 -15.94,-17.86 -8.75,-2.32 -17.68,1.03 -22.86,7.79l38.81 10.07zm-2.68 -67.72c11.62,3.09 23.54,-3.83 26.63,-15.44 3.09,-11.62 -3.83,-23.54 -15.44,-26.63 -11.62,-3.09 -23.55,3.83 -26.63,15.44 -3.09,11.62 3.83,23.55 15.44,26.63zm-37.52 37.99c11.62,3.09 23.54,-3.83 26.63,-15.44 3.09,-11.62 -3.83,-23.54 -15.44,-26.62 -11.62,-3.1 -23.54,3.82 -26.63,15.43 -3.09,11.62 3.83,23.55 15.44,26.63zm30.41 -91.2c7.15,-0.13 13.83,-3.79 17.75,-9.72l-17.75 9.72zm-43.74 107.03c-1.12,-8.48 -7.21,-15.88 -16,-18.22 -8.88,-2.36 -17.93,1.12 -23.09,8.07l39.08 10.15zm-53.56 -13.91c-0.98,-8.64 -7.13,-16.2 -16.03,-18.57 -8.99,-2.39 -18.17,1.21 -23.29,8.36l39.33 10.21zm1026.11 318.1l-254.53 467.15 -7.93 7.92 -150.62 -582.31 413.09 107.24zm-129.29 341.9l185.11 -339.7 352.46 -197.87 -537.56 537.56zm-729.35 -791.54l8.79 -4.81 -8.79 4.81zm-159.77 185.28l549.89 142.73 142.09 549.26 -691.98 -691.99z"/>
  </g>
 </g>
</svg>
