<?xml version="1.0" encoding="UTF-8"?>
<!DOCTYPE svg PUBLIC "-//W3C//DTD SVG 1.1//EN" "http://www.w3.org/Graphics/SVG/1.1/DTD/svg11.dtd">
<!-- Creator: CorelDRAW -->
<svg xmlns="http://www.w3.org/2000/svg" xml:space="preserve" width="9.1248mm" height="9.1248mm" version="1.1" style="shape-rendering:geometricPrecision; text-rendering:geometricPrecision; image-rendering:optimizeQuality; fill-rule:evenodd; clip-rule:evenodd"
viewBox="0 0 72.61 72.61"
 xmlns:xlink="http://www.w3.org/1999/xlink"
 xmlns:xodm="http://www.corel.com/coreldraw/odm/2003">
 <defs>
  <style type="text/css">
   <![CDATA[
    .fil0 {fill:white}
   ]]>
  </style>
 </defs>
 <g id="Camada_x0020_1">
  <metadata id="CorelCorpID_0Corel-Layer"/>
  <path class="fil0" d="M1.16 33.49l32.32 -32.32c0.78,-0.78 1.8,-1.16 2.82,-1.16 1.02,0 2.05,0.39 2.82,1.16l32.32 32.32c1.55,1.55 1.55,4.09 0,5.64l-32.32 32.32c-0.78,0.78 -1.8,1.16 -2.82,1.16 -1.02,0 -2.05,-0.39 -2.82,-1.16l-32.32 -32.32c-1.55,-1.55 -1.55,-4.09 0,-5.64zm35.14 -29.79l0 65.22c0.09,0 0.16,-0.02 0.21,-0.07l0.01 -0.01 -0.01 -0.01 32.37 -32.37c0.02,-0.04 0.03,-0.1 0.03,-0.16 0,-0.08 -0.03,-0.15 -0.08,-0.21l-32.32 -32.32c-0.05,-0.05 -0.13,-0.08 -0.21,-0.08z"/>
 </g>
</svg>
